<svg width="176" height="58" viewBox="0 0 176 58" fill="none" xmlns="http://www.w3.org/2000/svg">
<path d="M69.5102 14.2505H76.2029C82.2797 14.2505 86.2406 18.4119 86.2406 23.8345C86.2406 29.2868 82.2769 33.3915 76.2029 33.3915H69.5102V14.2505ZM76.2029 31.2689C80.9594 31.2689 83.716 27.9392 83.716 23.8372C83.716 19.7055 81.045 16.3757 76.2029 16.3757H71.9464V31.2689H76.2029Z" fill="white"/>
<path d="M96.3971 25.7869H92.4942V33.3915H90.058V14.2505H97.9246C101.504 14.2505 104.059 16.4892 104.059 20.0187C104.059 23.4618 101.654 25.3576 98.9825 25.5871L104.267 33.3915H101.391L96.3971 25.7869ZM97.6291 16.3757H92.4914V23.6941H97.6291C99.9493 23.6941 101.532 22.1737 101.532 20.0214C101.532 17.8664 99.9493 16.3757 97.6291 16.3757Z" fill="white"/>
<path d="M120.229 29.1464H110.31L108.578 33.3942H105.877L113.744 14.2532H116.768L124.665 33.3942H121.964L120.229 29.1464ZM111.015 27.0211H119.497L115.271 16.3758L111.015 27.0211Z" fill="white"/>
<path d="M127.215 14.2505H135.081C139.015 14.2505 141.216 16.8915 141.216 20.0187C141.216 23.1459 138.957 25.7869 135.081 25.7869H129.651V33.3915H127.215V14.2505ZM134.789 16.3757H129.651V23.6644H134.789C137.109 23.6644 138.691 22.171 138.691 20.0187C138.691 17.8664 137.109 16.3757 134.789 16.3757Z" fill="white"/>
<path d="M144.445 14.2505H157.273V16.373H146.881V22.5437H157.065V24.6662H146.881V31.2662H157.273V33.3888H144.445V14.2505Z" fill="white"/>
<path d="M167.487 25.7869H163.584V33.3915H161.148V14.2505H169.015C172.594 14.2505 175.149 16.4892 175.149 20.0187C175.149 23.4618 172.743 25.3576 170.072 25.5871L175.356 33.3915H172.481L167.487 25.7869ZM168.719 16.3757H163.581V23.6941H168.719C171.039 23.6941 172.622 22.1737 172.622 20.0214C172.625 17.8664 171.039 16.3757 168.719 16.3757Z" fill="white"/>
<path d="M69.8831 42.2896C70.3168 42.7838 71.0266 43.2483 71.9879 43.2483C73.3745 43.2483 73.7695 42.4976 73.7695 41.9332C73.7695 41.0042 72.858 40.7449 71.9188 40.4992C70.8554 40.2129 69.7229 39.9159 69.7229 38.698C69.7229 37.6205 70.7145 36.9373 71.9382 36.9373C72.9408 36.9373 73.6976 37.2829 74.2252 37.8662L73.8413 38.2821C73.3551 37.7096 72.6674 37.4504 71.9078 37.4504C71.0073 37.4504 70.3306 37.9553 70.3306 38.6683C70.3306 39.4487 71.1703 39.6782 72.0901 39.924C73.1728 40.221 74.3771 40.5559 74.3771 41.9035C74.3771 42.7433 73.7998 43.7641 71.9796 43.7641C70.8664 43.7641 70.0267 43.3293 69.5102 42.7163L69.8831 42.2896Z" fill="white"/>
<path d="M79.8821 37.5611H77.6752V37.0453H82.6747V37.5611H80.4677V43.6453H79.8821V37.5611Z" fill="white"/>
<path d="M89.8315 42.0223H86.2379L85.5612 43.6453H84.9148L87.677 37.0453H88.3951L91.1573 43.6453H90.511L89.8315 42.0223ZM86.423 41.5065H89.6519L88.0333 37.5989L86.423 41.5065Z" fill="white"/>
<path d="M96.643 40.9124H95.1542V43.6426H94.5769V37.0426H97.096C98.2588 37.0426 99.151 37.7636 99.151 38.9707C99.151 40.167 98.2809 40.8314 97.2783 40.8692L99.2311 43.6399H98.5323L96.643 40.9124ZM97.049 37.5611H95.1569V40.3993H97.049C97.9384 40.3993 98.5461 39.8052 98.5461 38.9734C98.5461 38.1444 97.9384 37.5611 97.049 37.5611Z" fill="white"/>
<path d="M104.639 37.5611H102.432V37.0453H107.432V37.5611H105.225V43.6453H104.639V37.5611Z" fill="white"/>
<path d="M111.056 37.0453H111.642V41.1014C111.642 42.4382 112.36 43.2483 113.686 43.2483C115.011 43.2483 115.73 42.4382 115.73 41.1014V37.0453H116.315V41.1122C116.315 42.7433 115.426 43.7641 113.686 43.7641C111.956 43.7641 111.056 42.7352 111.056 41.1122V37.0453Z" fill="white"/>
<path d="M120.428 37.0453H122.958C124.254 37.0453 124.991 37.9365 124.991 38.9734C124.991 40.0131 124.243 40.9016 122.958 40.9016H121.005V43.6426H120.428V37.0453ZM122.897 37.5611H121.005V40.3912H122.897C123.787 40.3912 124.386 39.8079 124.386 38.9761C124.383 38.1444 123.787 37.5611 122.897 37.5611Z" fill="white"/>
<path d="M138.542 40.5073H134.261V43.6426H133.684V37.0426H134.261V39.9915H138.542V37.0426H139.128V43.6426H138.542V40.5073Z" fill="white"/>
<path d="M146.257 36.9373C148.229 36.9373 149.536 38.4225 149.536 40.3507C149.536 42.2788 148.229 43.7641 146.257 43.7641C144.274 43.7641 142.978 42.2788 142.978 40.3507C142.978 38.4225 144.274 36.9373 146.257 36.9373ZM146.257 37.4504C144.619 37.4504 143.586 38.6764 143.586 40.348C143.586 42.0115 144.619 43.2456 146.257 43.2456C147.876 43.2456 148.928 42.0088 148.928 40.348C148.928 38.6791 147.876 37.4504 146.257 37.4504Z" fill="white"/>
<path d="M153.392 37.0453H153.977V41.1014C153.977 42.4382 154.695 43.2483 156.021 43.2483C157.347 43.2483 158.065 42.4382 158.065 41.1014V37.0453H158.651V41.1122C158.651 42.7433 157.761 43.7641 156.021 43.7641C154.292 43.7641 153.392 42.7352 153.392 41.1122V37.0453Z" fill="white"/>
<path d="M162.764 42.2896C163.197 42.7838 163.907 43.2483 164.869 43.2483C166.255 43.2483 166.65 42.4976 166.65 41.9332C166.65 41.0042 165.739 40.7449 164.799 40.4992C163.736 40.2129 162.604 39.9159 162.604 38.698C162.604 37.6205 163.595 36.9373 164.819 36.9373C165.821 36.9373 166.578 37.2829 167.106 37.8662L166.722 38.2821C166.236 37.7096 165.548 37.4504 164.788 37.4504C163.888 37.4504 163.211 37.9553 163.211 38.6683C163.211 39.4487 164.051 39.6782 164.971 39.924C166.053 40.221 167.258 40.5559 167.258 41.9035C167.258 42.7433 166.681 43.7641 164.86 43.7641C163.747 43.7641 162.907 43.3293 162.391 42.7163L162.764 42.2896Z" fill="white"/>
<path d="M171.072 37.0453H175.354V37.5611H171.65V40.005H175.282V40.5208H171.65V43.1322H175.354V43.648H171.072V37.0453Z" fill="white"/>
<path d="M29.5195 57.3475C45.5358 57.3475 58.5195 44.6537 58.5195 28.9951C58.5195 13.3365 45.5358 0.6427 29.5195 0.6427C13.5033 0.6427 0.519531 13.3365 0.519531 28.9951C0.519531 44.6537 13.5033 57.3475 29.5195 57.3475Z" fill="white"/>
<path d="M17.8687 43.7722C17.6229 43.7722 17.424 43.702 17.2666 43.5588C17.1091 43.4184 17.0318 43.2483 17.0318 43.0484V18.5469C17.0318 18.3498 17.1091 18.1797 17.2666 18.0365C17.424 17.8961 17.6256 17.8232 17.8687 17.8232H26.9342C29.3455 17.8232 31.4834 18.3606 33.3534 19.4354C35.2207 20.5102 36.6459 21.9117 37.6237 23.64C38.4275 25.1982 38.8281 26.9373 38.8281 28.8628C38.8281 30.0807 38.6623 31.2554 38.3308 32.3869C37.9994 33.5184 37.4829 34.5608 36.784 35.5087C36.0852 36.4566 35.193 37.291 34.113 38.0147C33.0303 38.7358 31.7376 39.2948 30.2349 39.6917C29.6052 39.6917 29.2406 39.5351 29.1356 39.2246C29.0638 39.0274 29.0831 38.8411 29.1881 38.6737C29.293 38.5035 29.4671 38.3901 29.7129 38.3334C30.2709 38.193 30.9697 37.9445 31.8094 37.5908C32.6463 37.237 33.4611 36.6996 34.2456 35.9786C35.0328 35.2575 35.704 34.3232 36.262 33.1755C36.8199 32.0277 37.0989 30.5938 37.0989 28.8655C37.0989 27.3937 36.8282 26.0138 36.2869 24.7256C35.7455 23.4375 34.7925 22.2844 33.4308 21.2636C32.522 20.6128 31.5 20.1105 30.3648 19.7567C29.2295 19.403 28.086 19.2247 26.9342 19.2247H18.7609V43.0457C18.7609 43.2429 18.6725 43.413 18.4985 43.5561C18.3245 43.702 18.1145 43.7722 17.8687 43.7722ZM22.4291 15.6196C22.1832 15.6196 21.9761 15.5548 21.7993 15.4279C21.6253 15.3009 21.5369 15.1389 21.5369 14.9391C21.5369 14.7419 21.6225 14.5718 21.7993 14.4287C21.9733 14.2882 22.1832 14.2153 22.4291 14.2153H28.0887C29.5914 14.2153 31.0387 14.4125 32.4364 14.8094C33.834 15.2064 35.1267 15.7438 36.3145 16.4216C37.5022 17.1022 38.5684 17.915 39.5103 18.8629C40.4522 19.8107 41.2035 20.8369 41.7642 21.9414C42.8829 24.064 43.4409 26.4701 43.4409 29.1598C43.4409 31.142 43.126 33.0161 42.499 34.785C41.8692 36.5538 40.919 38.0958 39.6429 39.4136C38.3668 40.7287 36.7702 41.7765 34.8478 42.5569C32.9253 43.3347 30.6741 43.7236 28.0887 43.7236H22.4815C22.2357 43.7236 22.0258 43.6588 21.8518 43.5318C21.6777 43.4049 21.5893 43.2429 21.5893 43.043V21.7686C21.5893 21.5418 21.675 21.3662 21.8518 21.2366C22.0258 21.1097 22.2357 21.0449 22.4815 21.0449C23.0395 21.0449 23.3185 21.2852 23.3185 21.7659V42.3166H28.086C30.8454 42.3166 33.3175 41.7576 35.4996 40.6396C37.6817 39.5216 39.281 37.9148 40.2948 35.8192C41.2367 33.9505 41.709 31.728 41.709 29.1517C41.709 27.1129 41.3333 25.155 40.582 23.2701C39.8307 21.3878 38.4938 19.754 36.5741 18.366C35.1405 17.3479 33.649 16.6323 32.0939 16.2218C30.5388 15.8113 29.2019 15.6061 28.086 15.6061H22.4291V15.6196Z" fill="#204471"/>
</svg>
