<svg width="40" height="40" viewBox="0 0 40 40" fill="none" xmlns="http://www.w3.org/2000/svg">
<path d="M30.0644 22.3982C29.2641 21.6822 28.211 21.2188 27.158 21.1767L17.3015 20.4606C16.8382 20.4185 16.417 20.587 16.08 20.8819C15.743 21.1767 15.5324 21.5979 15.4903 22.0191C15.4482 22.7773 15.9115 23.4934 16.6276 23.704L17.0067 23.8304C19.0706 24.5043 21.2188 25.0098 23.367 25.3046L25.2204 25.5574C25.5152 25.5995 25.768 25.768 25.9364 25.9786C26.1049 26.2313 26.1892 26.5262 26.1471 26.821C26.1049 27.1159 25.9364 27.3686 25.7258 27.5792C25.4731 27.7477 25.1783 27.8319 24.8834 27.7898L23.0301 27.5371C20.7555 27.2001 18.4809 26.6946 16.2906 25.9786L15.9115 25.8522C14.2266 25.3046 13.0893 23.6619 13.2157 21.8928C13.2157 21.7664 13.2578 21.64 13.2578 21.5137L7.3608 18.9443C6.68685 18.6494 5.84442 18.7758 5.29684 19.2391C4.87562 19.6182 4.62289 20.1237 4.62289 20.6712C4.62289 21.2188 4.8335 21.7664 5.2126 22.1455L16.2906 32.8444C17.3436 33.8553 18.6915 34.4029 20.1237 34.4029L28.4216 34.4871L35.3717 27.5371L30.0644 22.3982Z" fill="#4C8FCC"/>
<path d="M39.7102 31.7914L36.9723 29.0535L30.1065 35.9614L32.8444 38.6993C33.2235 39.0784 33.8132 39.0784 34.1923 38.6993L39.7524 33.1393C40.0893 32.7602 40.0893 32.1705 39.7102 31.7914Z" fill="#4C8FCC"/>
<path d="M12.8365 17.8069L22.6929 18.523C23.1563 18.5651 23.5775 18.3966 23.9145 18.1018C24.2514 17.8069 24.4621 17.3857 24.4621 16.9645C24.5042 16.2063 24.0408 15.4902 23.3248 15.2796L22.9457 15.1532C20.8817 14.4793 18.7335 13.9738 16.5853 13.679L14.732 13.4263C14.4371 13.3841 14.1844 13.2156 14.0159 13.005C13.8474 12.7523 13.7632 12.4575 13.8053 12.1626C13.8474 11.8678 14.0159 11.615 14.2265 11.4044C14.4792 11.2359 14.7741 11.1517 15.0689 11.1938L16.9223 11.4465C19.1969 11.7835 21.4714 12.289 23.6617 13.005L24.0408 13.1314C25.7257 13.679 26.863 15.3217 26.7366 17.0908C26.7366 17.2172 26.6945 17.3436 26.6945 17.4699L32.5915 20.0394C33.2655 20.3342 34.1079 20.2078 34.6555 19.7445C35.0767 19.3654 35.3294 18.8599 35.3294 18.3124C35.3294 17.7648 35.1188 17.2172 34.7397 16.8381L23.6196 6.09709C22.5666 5.08617 21.2187 4.53859 19.7866 4.53859L11.4886 4.45435L4.4964 11.4044L9.93009 16.5854C10.7304 17.3014 11.7834 17.7648 12.8365 17.8069Z" fill="#4C8FCC"/>
<path d="M7.15015 0.284321C6.77105 -0.0947737 6.18135 -0.0947737 5.80226 0.284321L0.284321 5.84438C-0.0947737 6.22347 -0.0947737 6.81318 0.284321 7.19227L3.02223 9.93018L9.88806 3.02223L7.15015 0.284321Z" fill="#4C8FCC"/>
</svg>
