<svg width="40" height="29" viewBox="0 0 40 29" fill="none" xmlns="http://www.w3.org/2000/svg">
<path d="M39.152 7.30926L22.5516 0.52209C20.9084 -0.17403 19.1389 -0.17403 17.4536 0.52209L0.853191 7.30926C-0.284397 7.77334 -0.284397 10.0357 0.853191 10.4998L17.4536 17.287C19.0967 17.9831 20.8663 17.9831 22.5516 17.287L35.2941 11.7647V21.9278C34.9992 22.1018 34.7464 22.5079 34.7464 22.9719V23.8421C34.7464 24.3642 34.9992 24.7702 35.2941 24.8863L34.3251 27.9608C34.2408 28.3088 34.3672 28.6569 34.62 28.7149L35.4205 28.8309C35.5891 28.8309 37.888 28.8309 38.0565 28.8309L38.8571 28.7149C39.1099 28.6569 39.2784 28.3088 39.152 27.9608L38.1829 24.8863C38.52 24.7122 38.7307 24.3062 38.7307 23.8421V22.9719C38.7307 22.5079 38.52 22.1018 38.1829 21.9278V11.0219L39.1099 10.4998C40.2896 10.0357 40.2896 7.77334 39.152 7.30926Z" fill="#4C8FCC"/>
</svg>
